<svg width="10" height="8" viewBox="0 0 12 10" fill="none" xmlns="http://www.w3.org/2000/svg">
<g clip-path="url(#clip0_46_40)">
<path d="M9.6365 0.628865H1.57039C0.964516 0.628865 0.693907 0.978205 0.855543 1.55957C1.18194 2.72995 1.51095 3.89946 1.84256 5.0681C1.95727 5.47427 2.1554 5.61974 2.57774 5.61974H8.67295C8.61299 5.94458 8.55824 6.24073 8.49776 6.57182H8.18961C6.31255 6.57182 4.4355 6.57182 2.55845 6.57182C2.12777 6.57182 1.88479 6.91439 2.06885 7.25486C2.17313 7.4457 2.3478 7.49732 2.55219 7.49627C3.11687 7.49367 3.68207 7.49627 4.24675 7.49627H8.65261C9.20061 7.49627 9.29133 7.41754 9.39196 6.88102C9.75069 4.97894 10.1146 3.0779 10.4666 1.17425C10.502 0.982898 10.5641 0.908337 10.7633 0.922415C11.0149 0.93606 11.267 0.93693 11.5188 0.925022C11.8003 0.915637 11.9917 0.73106 11.9995 0.477137C12.0078 0.213828 11.8102 0.00787335 11.5177 0.00474492C11.0658 -0.00324994 10.614 -0.00324994 10.1621 0.00474492C9.83672 0.0104804 9.71575 0.152824 9.6365 0.628865ZM1.82118 1.57469H9.45505C9.26161 2.57683 9.07026 3.55603 8.88672 4.53418C8.85805 4.68747 8.77097 4.6979 8.64688 4.69738C6.72811 4.69529 4.80935 4.69529 2.89058 4.69738C2.74198 4.69738 2.67837 4.65045 2.64083 4.50759C2.49901 3.97106 2.34467 3.43819 2.19503 2.90375C2.07041 2.46525 1.94684 2.02518 1.82118 1.57469V1.57469Z" fill="#F7F7F7"/>
<path d="M8.57332 8.13753C8.38906 8.1363 8.20857 8.18975 8.0547 8.29114C7.90084 8.39253 7.78051 8.53728 7.70894 8.70708C7.63738 8.87689 7.6178 9.0641 7.65269 9.24504C7.68757 9.42597 7.77535 9.59249 7.90492 9.72352C8.03448 9.85454 8.2 9.94418 8.38054 9.98109C8.56107 10.018 8.74849 10.0005 8.91909 9.93087C9.08968 9.86122 9.23578 9.74252 9.33888 9.5898C9.44198 9.43707 9.49746 9.2572 9.49829 9.07293C9.49604 8.82734 9.39819 8.59229 9.2255 8.41766C9.05281 8.24302 8.81887 8.14254 8.57332 8.13753V8.13753Z" fill="#F7F7F7"/>
<path d="M2.00835 9.06564C2.00804 9.24944 2.06222 9.42921 2.16405 9.58223C2.26588 9.73525 2.41078 9.85465 2.58044 9.92535C2.75011 9.99604 2.93692 10.0149 3.11727 9.97942C3.29763 9.94397 3.46343 9.85587 3.59372 9.72623C3.72402 9.59659 3.81296 9.43123 3.84931 9.25106C3.88566 9.07089 3.86779 8.88398 3.79795 8.71396C3.72812 8.54395 3.60945 8.39844 3.45694 8.29585C3.30444 8.19325 3.12494 8.13816 2.94114 8.13754C2.69547 8.14049 2.46063 8.23907 2.28647 8.41236C2.1123 8.58565 2.01254 8.81999 2.00835 9.06564V9.06564Z" fill="#F7F7F7"/>
</g>
<defs>
<clipPath id="clip0_46_40">
<rect width="11.1909" height="10" fill="white" transform="matrix(-1 0 0 1 12 0)"/>
</clipPath>
</defs>
</svg>
