<?xml version="1.0" encoding="UTF-8"?>
<svg width="100px" height="100px" viewBox="0 0 100 100" version="1.1" xmlns="http://www.w3.org/2000/svg" xmlns:xlink="http://www.w3.org/1999/xlink">
    <!-- Generator: Sketch 51.1 (57501) - http://www.bohemiancoding.com/sketch -->
    <title class="globeIconWhite">Globe Icon White</title>
    <desc>Created with Sketch.</desc>
    <defs></defs>
    <g id="Globe-Icon-White" stroke="none" stroke-width="1" fill="none" fill-rule="evenodd">
        <g transform="translate(10.000000, 10.000000)" fill="#FFFFFF" fill-rule="nonzero" id="Shape">
            <path d="M79.9915573,39.586221 C79.9800403,38.4164523 79.9208107,37.25491 79.8105773,36.1114653 C79.4403907,32.2994344 78.528909,28.645347 77.163332,25.2199486 C77.061325,24.9649357 76.9675443,24.7066324 76.8589563,24.45491 C75.0392837,20.1558869 72.484174,16.2418509 69.3565087,12.8641645 C69.1508497,12.6437018 68.9418997,12.4265296 68.73295,12.2126478 C68.1422967,11.5989717 67.535191,11.0001028 66.9066963,10.4259126 C59.7958237,3.9518766 50.3519533,0 39.9998917,0 C29.5606308,0 20.0493041,4.0226221 12.9186883,10.5953728 C11.256962,12.1270951 9.7301481,13.7986632 8.3448277,15.5886889 C3.11943875,22.3473522 0,30.8137789 0,39.9991773 C0,62.0569667 17.9449992,80 40.001537,80 C55.5164673,80 68.986322,71.1156813 75.6167747,58.1708997 C77.0350007,55.403599 78.1389793,52.453676 78.882643,49.3622623 C79.0718493,48.5774807 79.2347313,47.7894087 79.376225,46.9914653 C79.779317,44.719383 79.9997837,42.3831363 79.9997837,39.9991773 C80.001429,39.860977 79.9932027,39.7244217 79.9915573,39.586221 Z M72.4627853,23.599383 L72.694769,23.3394344 C72.9991443,23.9300771 73.2837767,24.5305913 73.555247,25.1393316 L73.176834,25.1245244 L72.4627853,25.2232391 L72.4627853,23.599383 Z M66.682939,16.6202571 L66.6895203,14.8335219 C67.3180147,15.4998458 67.9234753,16.1859126 68.5026117,16.8966581 L67.781982,17.9693573 L65.263068,17.9463239 L65.1051217,17.421491 L66.682939,16.6202571 Z M18.4303549,12.1797429 L18.4303549,12.1122879 L19.2316031,12.1122879 L19.3007046,11.8375321 L20.6119877,11.8375321 L20.6119877,12.4100771 L20.23522,12.9135219 L18.4287096,12.9135219 L18.4303549,12.1797429 Z M19.7103778,13.9648329 C19.7103778,13.9648329 20.511626,13.8282776 20.5807275,13.8282776 C20.649829,13.8282776 20.5807275,14.6278663 20.5807275,14.6278663 L18.7742171,14.7413882 L18.4303549,14.3300771 L19.7103778,13.9648329 Z M75.011314,29.8430848 L72.0843723,29.8430848 L70.3008957,28.5153728 L68.4236387,28.6979949 L68.4236387,29.8430848 L67.8296947,29.8430848 L67.188038,29.3857069 L63.9369773,28.5614396 L63.9369773,26.455527 L59.8172123,26.7763496 L58.54048,27.4624165 L56.905078,27.4624165 L56.10383,27.3817995 L54.1179847,28.4841131 L54.1179847,30.5587661 L50.0590947,33.4873007 L50.3963757,34.7376863 L51.2190127,34.7376863 L51.0034817,35.9288433 L50.4243453,36.1410797 L50.3930853,39.2538817 L53.9008087,43.2485347 L55.4276223,43.2485347 L55.5197577,43.0050387 L58.264074,43.0050387 L59.0554507,42.272905 L60.6118797,42.272905 L61.4657767,43.128432 L63.7856123,43.3686377 L63.477946,46.4534703 L66.0527993,50.9992803 L64.697094,53.59054 L64.7892293,54.811311 L65.8570117,55.875784 L65.8570117,58.8108997 L67.258785,60.6963497 L67.258785,63.1346017 L68.4697063,63.1346017 C61.7306657,71.4085347 51.47403,76.7078663 39.9982467,76.7078663 C19.7580907,76.7095117 3.29054721,60.240617 3.29054721,39.9991773 C3.29054721,34.903856 4.33694123,30.0470951 6.2207795,25.6329049 L6.2207795,24.4878149 L7.53370783,22.8935733 C7.9894486,22.0331105 8.47809487,21.194036 8.9996466,20.3763496 L9.05887647,21.0426735 L7.5353531,22.8935733 C7.06315957,23.7852956 6.62222627,24.6967609 6.22242477,25.6329049 L6.22242477,27.722365 L7.7475934,28.456144 L7.7475934,31.36 L9.21024163,33.8558353 L10.3997744,34.0384577 L10.5527849,33.1829306 L9.1493665,31.0177892 L8.8746058,28.9135219 L9.6972426,28.9135219 L10.0443953,31.0786632 L12.0730177,34.0384577 L11.5498207,34.9943443 L12.8397152,36.9669923 L16.0430629,37.76 L16.0430629,37.241748 L17.324731,37.4243703 L17.2029808,38.339126 L18.2098882,38.5233933 L19.7646718,38.9478663 L21.9611121,41.4502827 L24.7663035,41.6625193 L25.0410642,43.951054 L23.1210299,45.2935733 L23.0305399,47.3369667 L22.7557792,48.5873523 L25.533001,52.0637533 L25.7452413,53.25491 C25.7452413,53.25491 26.7521488,53.5280207 26.8755443,53.5280207 C26.9972945,53.5280207 29.1328597,55.1452957 29.1328597,55.1452957 L29.1328597,61.4284833 L29.8946214,61.642365 L29.3763602,64.5412853 L30.6580283,66.250694 L30.4211089,69.1232903 L32.1140955,72.0995373 L34.287502,73.998149 L36.4724253,74.037635 L36.6863107,73.3351157 L35.0805237,71.982725 L35.172659,71.3114653 L35.460582,70.4888433 L35.521457,69.6497687 L34.4355767,69.6168637 L33.8877003,68.9291517 L34.7893103,68.062108 L34.9110607,67.4073007 L33.904153,67.119383 L33.963383,66.5106427 L35.3980617,66.2934703 L37.5796943,65.24545 L38.311841,63.9029307 L40.6004167,60.974396 L40.0805103,58.684216 L40.783042,57.46509 L42.887347,57.5292543 L44.3039277,56.407198 L44.7613137,51.988072 L46.33255,49.9923907 L46.6073107,48.7107457 L45.1742773,48.2517223 L44.228245,46.700257 L40.9952823,46.6673523 L38.431946,45.690077 L38.310196,43.8622107 L37.4546537,42.3666837 L35.136463,42.3321337 L33.7972103,40.2295117 L32.6076775,39.6487403 L32.5468024,40.2903857 L30.3816223,40.4187147 L29.5886005,39.3147557 L27.3296398,38.8557327 L25.4688354,41.006067 L22.5402484,40.509203 L22.3280081,37.2088433 L20.1907977,36.843599 L21.0479852,35.2246787 L20.8028394,34.2951157 L17.9943574,36.1723393 L16.2273335,35.9568123 L15.5971938,34.5764523 L15.9821878,33.1533162 L16.9561898,31.3583548 L19.1986977,30.2231362 L23.5290578,30.221491 L23.5175409,31.5426221 L25.0739697,32.2665296 L24.9505742,30.0092545 L26.0726508,28.880617 L28.3365473,27.3933162 L28.491203,26.3469409 L30.7485184,23.9975321 L33.1489725,22.6681748 L32.9367323,22.4937789 L34.5622627,20.9637018 L35.1578517,21.1216452 L35.430967,21.463856 L36.0479447,20.7794344 L36.1993097,20.7119794 L35.5231023,20.6165553 L34.8370233,20.3878663 L34.8370233,19.7297686 L35.2006287,19.4319794 L36.001877,19.4319794 L36.368773,19.5932134 L36.6863107,20.2348586 L37.0745953,20.1756298 L37.0745953,20.1196915 L37.186474,20.1575321 L38.311841,19.9847815 L38.4714327,19.4352699 L39.1130893,19.5965039 L39.1130893,20.1920823 L38.5175003,20.6017481 L38.5191457,20.6017481 L38.606345,21.25491 L40.644839,21.8833933 C40.644839,21.8833933 40.6464843,21.8916195 40.649775,21.908072 L41.118678,21.8685861 L41.149938,20.98509 L39.5342793,20.2496658 L39.442144,19.8251928 L40.783042,19.3678149 L40.842272,18.0845244 L39.4404987,17.2306427 L39.3483633,15.0671465 L37.426684,16.0115167 L36.7257973,16.0115167 L36.910068,14.3646272 L34.294083,13.7476607 L33.2114929,14.565347 L33.2114929,17.0595373 L31.2651343,17.6765039 L30.4852746,19.3020051 L29.639604,19.4385604 L29.639604,17.3589717 L27.8100597,17.1056041 L26.8952876,16.5100257 L26.5267463,15.1625707 L29.7991955,13.2475064 L31.4000467,12.7605141 L31.5612835,13.8365039 L32.4530218,13.790437 L32.5221233,13.2491517 L33.4549933,13.1158869 L33.4714463,12.9266838 L33.0699994,12.7605141 L32.9778641,12.1879692 L34.1246197,12.0908997 L34.81728,11.3702828 L34.8551213,11.317635 L34.8633477,11.3209254 L35.0739427,11.1037532 L37.4842683,10.799383 L38.5504057,11.7042674 L35.755086,13.1932134 L39.3121673,14.0322879 L39.772844,12.8427763 L41.3276277,12.8427763 L41.877149,11.8062725 L40.7781063,11.5315167 L40.7781063,10.2202571 L37.331258,8.69347043 L34.9521923,8.96822623 L33.609649,9.6707455 L33.7017843,11.378509 L32.2983661,11.1646272 L32.0828353,10.2202571 L33.4270237,8.99948587 L30.987083,8.8777378 L30.2861965,9.0899743 L29.9818209,9.9125964 L30.896593,10.0672494 L30.7139676,10.9820051 L29.1591841,11.0741388 L28.9156836,11.6828792 L26.6600135,11.7453985 C26.6600135,11.7453985 26.5974931,10.4653985 26.507003,10.4653985 C26.416513,10.4653985 28.2756721,10.4341388 28.2756721,10.4341388 L29.6198607,9.12123393 L28.8860686,8.75434447 L27.9104214,9.70200513 L26.2914722,9.60987147 L25.3158249,8.2673522 L23.2411349,8.2673522 L21.0759549,9.88462723 L23.0601548,9.88462723 L23.2411349,10.4653985 L22.7261643,10.9441645 L24.9226045,11.0050386 L25.2582404,11.7980463 L22.7853941,11.7059126 L22.6652892,11.095527 L21.1105056,10.7598972 L20.2862235,10.3025193 L18.4352907,10.3173265 C24.4948334,5.90313623 31.9462775,3.29048843 39.9998917,3.29048843 C49.2825253,3.29048843 57.763911,6.76030847 64.234772,12.4610797 L63.7987743,13.2409254 L62.105788,13.9039589 L61.3917393,14.6788689 L61.5562667,15.582108 L62.429907,15.703856 L62.9563943,17.0200514 L64.463465,16.4129563 L64.7119013,18.1733676 L64.2578057,18.1733676 L63.02056,17.9907455 L61.648402,18.2210797 L60.320666,20.0966581 L58.4220203,20.3944473 L58.1472597,22.0199486 L58.948508,22.2091517 L58.7165243,23.2538817 L56.8310407,22.8754756 L55.1018583,23.2538817 L54.7349623,24.2163496 L55.034402,26.2367095 L56.0495357,26.7121851 L57.752394,26.7023136 L58.9024403,26.5986632 L59.2528837,25.6839075 L61.0495223,23.3493059 L62.232474,23.5911568 L63.3973277,22.5382005 L63.614504,23.3608226 L66.4805703,25.2939846 L66.1301273,25.7645244 L64.8385873,25.6954242 L65.33546,26.3995887 L66.1301273,26.5739846 L67.061352,26.1857069 L67.0416087,25.0636504 L67.4545723,24.8563496 L67.1222273,24.5042674 L65.2104193,23.4381491 L64.7069657,22.0215938 L66.2962997,22.0215938 L66.8046893,22.5250386 L68.173557,23.7046787 L68.2311417,25.1311054 L69.6493673,26.6414396 L70.1775003,24.5717224 L71.1597287,24.0353728 L71.3439993,25.728329 L72.3031937,26.7812853 L74.216647,26.7483805 C74.5868337,27.7009769 74.9191787,28.6700257 75.2103923,29.6588175 L75.011314,29.8430848 Z M21.8179732,18.1733676 L22.778813,17.7159897 L23.6475175,17.9232905 L23.3480777,19.0897686 L22.4102717,19.3875578 L21.8179732,18.1733676 Z M26.9166761,20.9192802 L26.9166761,21.6744473 L24.7218812,21.6744473 L23.8992444,21.4457584 L24.1049036,20.9192802 L25.1595239,20.4832905 L26.6007836,20.4832905 L26.6007836,20.9192802 L26.9166761,20.9192802 Z M27.9268741,21.9722365 L27.9268741,22.7043702 L27.3773528,23.0580977 L26.6929189,23.1847815 C26.6929189,23.1847815 26.6929189,22.0874036 26.6929189,21.9722365 L27.9268741,21.9722365 Z M27.3082513,21.6744473 L27.3082513,20.8041131 L28.0634318,21.4918252 L27.3082513,21.6744473 Z M27.6521134,23.4348586 L27.6521134,24.1472494 L27.1272712,24.6737275 L25.9607722,24.6737275 L26.1433975,23.8741388 L26.6945642,23.8264267 L26.8080881,23.551671 L27.6521134,23.4348586 Z M24.7465603,21.9722365 L25.9591269,21.9722365 L24.4043434,24.1456041 L23.7626866,23.8017481 L23.9008896,22.8869923 L24.7465603,21.9722365 Z M29.711996,23.1847815 L29.711996,23.895527 L28.545497,23.895527 L28.2263139,23.4348586 L28.2263139,22.7734704 L28.3184493,22.7734704 L29.711996,23.1847815 Z M28.6343418,22.2075064 L28.9666871,21.8587147 L29.5277253,22.2075064 L29.0785657,22.5776864 L28.6343418,22.2075064 Z M75.606903,31.6956298 L75.7220723,31.5607198 C75.7697853,31.7680206 75.8207887,31.9753213 75.8668563,32.1859126 L75.606903,31.6956298 Z"></path>
        </g>
    </g>
</svg>