<?xml version="1.0" encoding="UTF-8"?>
<svg width="100px" height="100px" viewBox="0 0 100 100" version="1.1" xmlns="http://www.w3.org/2000/svg" xmlns:xlink="http://www.w3.org/1999/xlink">
    <!-- Generator: Sketch 51.1 (57501) - http://www.bohemiancoding.com/sketch -->
    <title class="productShareIcon"> Product Share Icon </title>
    <desc>Created with Sketch.</desc>
    <defs></defs>
    <g id="-Product-Share-Icon-" stroke="none" stroke-width="1" fill="none" fill-rule="evenodd">
        <g transform="translate(12.000000, 10.000000)" fill="#000000" fill-rule="nonzero" id="Shape">
            <path d="M60.9981861,51.3953489 C56.4042499,51.3953489 52.3078518,53.5880398 49.6874838,56.9767442 L27.7460482,44.7009967 C28.2601711,43.2225913 28.5421094,41.6279071 28.5421094,39.9833887 C28.5421094,38.3222591 28.2601711,36.7441861 27.7294635,35.2491694 L49.6543146,22.9900332 C52.2580979,26.3953489 56.3710807,28.6046511 60.9816014,28.6046511 C68.8427054,28.6046511 75.2609485,22.192691 75.2609485,14.3023256 C75.2609485,6.41196014 68.8592899,0 60.9816014,0 C53.1039129,0 46.7022544,6.41196014 46.7022544,14.3023256 C46.7022544,15.9634552 46.9841927,17.5581395 47.5149002,19.0365448 L25.6066339,31.2956812 C23.0028505,27.8737541 18.8898678,25.6810631 14.279347,25.6810631 C6.41824306,25.6810631 0,32.0930233 0,39.9833887 C0,47.8737541 6.41824306,54.2857144 14.2959316,54.2857144 C18.9064524,54.2857144 23.0194351,52.076412 25.6398031,48.6544849 L47.5646541,60.9302325 C47.0339466,62.4252492 46.7354238,64.0365449 46.7354238,65.6976744 C46.7354238,73.5714285 53.1370821,80 61.0147706,80 C68.8924593,80 75.2941176,73.5880398 75.2941176,65.6976744 C75.2941176,57.8073089 68.8758746,51.3953489 60.9981861,51.3953489 Z M60.9981861,4.50166113 C66.404768,4.50166113 70.7996889,8.90365449 70.7996889,14.3189369 C70.7996889,19.7342193 66.404768,24.1362127 60.9981861,24.1362127 C55.591604,24.1362127 51.1966831,19.7342193 51.1966831,14.3189369 C51.1966831,8.90365449 55.6081887,4.50166113 60.9981861,4.50166113 Z M14.2959316,49.8006645 C8.88934958,49.8006645 4.49442861,45.3986711 4.49442861,39.9833887 C4.49442861,34.5681064 8.88934958,30.1661129 14.2959316,30.1661129 C19.7025136,30.1661129 24.0974346,34.5681064 24.0974346,39.9833887 C24.0974346,45.3986711 19.685929,49.8006645 14.2959316,49.8006645 Z M60.9981861,75.4983388 C55.591604,75.4983388 51.1966831,71.0963454 51.1966831,65.6810631 C51.1966831,60.2657807 55.591604,55.8637873 60.9981861,55.8637873 C66.404768,55.8637873 70.7996889,60.2657807 70.7996889,65.6810631 C70.7996889,71.0963454 66.404768,75.4983388 60.9981861,75.4983388 Z"></path>
        </g>
    </g>
</svg>