<?xml version="1.0" encoding="utf-8"?>
<!-- Generator: Adobe Illustrator 26.1.0, SVG Export Plug-In . SVG Version: 6.00 Build 0)  -->
<svg version="1.1" id="Слой_1" xmlns="http://www.w3.org/2000/svg" xmlns:xlink="http://www.w3.org/1999/xlink" x="0px" y="0px"
	 viewBox="0 0 240 240" style="enable-background:new 0 0 240 240;" xml:space="preserve">
<style type="text/css">
	
		.st0{clip-path:url(#SVGID_00000169523706455448022120000013822925435253731970_);fill-rule:evenodd;clip-rule:evenodd;fill:#FFFFFF;}
	.st1{fill:#FFFFFF;}
</style>
<g>
	<path class="st1" d="M161.83,82.14l-77.29,48.51l13.14,40.28l3.29-28.81l64.15-57.72C166.83,82.43,165.63,79.58,161.83,82.14z"/>
	<path class="st1" d="M230,0H10C4.48,0,0,4.48,0,10v220c0,5.52,4.48,10,10,10h220c5.52,0,10-4.48,10-10V10C240,4.48,235.52,0,230,0z
		 M192.03,69.39l-22.17,109.7c-1.56,7.5-5.99,9.5-12.14,6.41c-0.46-0.23-0.9-0.52-1.31-0.82l-27.92-20.63
		c-3.94-2.91-9.4-2.54-12.91,0.87c-4.93,4.78-8.41,8.14-10.93,10.51c-2.95,2.61-4.03,3.64-6.87,3.6c-2.7-0.04-3.99-1.68-5.57-6.05
		L80.8,137.99c-1-3.08-3.44-5.48-6.53-6.45l-29.07-9.08c-5.49-1.76-5.73-9.09,1.7-11.24l135.69-51.39
		C188.81,57.01,194.4,59.86,192.03,69.39z"/>
</g>
</svg>
