<?xml version="1.0" encoding="utf-8"?>
<!-- Generator: Adobe Illustrator 26.1.0, SVG Export Plug-In . SVG Version: 6.00 Build 0)  -->
<svg version="1.1" id="Слой_1" xmlns="http://www.w3.org/2000/svg" xmlns:xlink="http://www.w3.org/1999/xlink" x="0px" y="0px"
	 viewBox="0 0 240 240" style="enable-background:new 0 0 240 240;" xml:space="preserve">
<style type="text/css">
	
		.st0{clip-path:url(#SVGID_00000099646357614710030550000011492621375732142725_);fill-rule:evenodd;clip-rule:evenodd;fill:#FFFFFF;}
	.st1{fill:#FFFFFF;}
</style>
<path class="st1" d="M230,0H10C4.48,0,0,4.48,0,10v220c0,5.52,4.48,10,10,10h220c5.52,0,10-4.48,10-10V10C240,4.48,235.52,0,230,0z
	 M181.92,106.59h-0.02c-1.23,0.12-2.46,0.18-3.69,0.19c-13.53,0-26.14-6.82-33.55-18.13v61.75c0,25.2-20.43,45.64-45.64,45.64
	c-25.2,0-45.64-20.43-45.64-45.64s20.43-45.64,45.64-45.64c0.95,0,1.88,0.09,2.82,0.14v22.49c-0.94-0.11-1.86-0.28-2.82-0.28
	c-12.86,0-23.29,10.43-23.29,23.29c0,12.86,10.43,23.29,23.29,23.29c12.87,0,24.23-10.14,24.23-23l0.23-104.87h21.52
	c2.03,19.29,17.59,34.36,36.93,35.78V106.59z"/>
</svg>
