<?xml version="1.0" encoding="utf-8"?>
<!-- Generator: Adobe Illustrator 26.1.0, SVG Export Plug-In . SVG Version: 6.00 Build 0)  -->
<svg version="1.1" id="Слой_1" xmlns="http://www.w3.org/2000/svg" xmlns:xlink="http://www.w3.org/1999/xlink" x="0px" y="0px"
	 viewBox="0 0 240 240" style="enable-background:new 0 0 240 240;" xml:space="preserve">
<style type="text/css">
	
		.st0{clip-path:url(#SVGID_00000037672091364380891250000001174191928477841591_);fill-rule:evenodd;clip-rule:evenodd;fill:#FFFFFF;}
	.st1{fill:#FFFFFF;}
</style>
<path class="st1" d="M230,0H10.15C4.54,0,0,4.54,0,10.15V230c0,5.52,4.48,10,10,10h220c5.52,0,10-4.48,10-10V10
	C240,4.48,235.52,0,230,0z M202.64,179.2l-24.29,0.34c0,0-5.22,1.03-12.09-3.68c-9.08-6.24-17.65-22.45-24.33-20.33
	c-6.77,2.15-6.56,16.74-6.56,16.74s0.05,3.12-1.49,4.78c-1.68,1.81-4.96,2.17-4.96,2.17h-10.87c0,0-23.99,1.44-45.11-20.55
	C49.9,134.66,29.55,87.06,29.55,87.06s-1.17-3.12,0.1-4.63c1.43-1.7,5.33-1.81,5.33-1.81l25.99-0.17c0,0,2.45,0.41,4.2,1.7
	c1.44,1.06,2.25,3.05,2.25,3.05s4.2,10.62,9.76,20.23c10.86,18.76,15.91,22.86,19.6,20.86c5.37-2.93,3.76-26.52,3.76-26.52
	s0.1-8.56-2.71-12.38c-2.17-2.95-6.26-3.82-8.07-4.06c-1.46-0.2,0.94-3.59,4.05-5.11c4.68-2.29,12.93-2.42,22.69-2.32
	c7.6,0.08,9.79,0.55,12.77,1.27c8.96,2.16,5.92,10.52,5.92,30.56c0,6.42-1.16,15.44,3.47,18.44c1.99,1.29,6.86,0.19,19.04-20.49
	c5.77-9.8,10.1-21.32,10.1-21.32s0.94-2.05,2.41-2.93c1.5-0.9,3.53-0.62,3.53-0.62l27.35-0.17c0,0,8.22-0.98,9.55,2.73
	c1.4,3.89-3.07,12.98-14.24,27.88c-18.35,24.45-20.39,22.17-5.16,36.3c14.55,13.51,17.57,20.08,18.06,20.9
	C215.35,178.42,202.64,179.2,202.64,179.2z"/>
</svg>
