<?xml version="1.0" encoding="utf-8"?>
<!-- Generator: Adobe Illustrator 26.1.0, SVG Export Plug-In . SVG Version: 6.00 Build 0)  -->
<svg version="1.1" id="Слой_1" xmlns="http://www.w3.org/2000/svg" xmlns:xlink="http://www.w3.org/1999/xlink" x="0px" y="0px"
	 viewBox="0 0 240 240" style="enable-background:new 0 0 240 240;" xml:space="preserve">
<style type="text/css">
	
		.st0{clip-path:url(#SVGID_00000098923228705973019270000007529493717367977637_);fill-rule:evenodd;clip-rule:evenodd;fill:#FFFFFF;}
	.st1{fill:#FFFFFF;}
</style>
<g>
	<defs>
		<path id="SVGID_1_" d="M230,240H10c-5.52,0-10-4.48-10-10V10C0,4.48,4.48,0,10,0h220c5.52,0,10,4.48,10,10v220
			C240,235.52,235.52,240,230,240z"/>
	</defs>
	<clipPath id="SVGID_00000152952859404988021720000006555366006828867731_">
		<use xlink:href="#SVGID_1_"  style="overflow:visible;"/>
	</clipPath>
	
		<path style="clip-path:url(#SVGID_00000152952859404988021720000006555366006828867731_);fill-rule:evenodd;clip-rule:evenodd;fill:#FFFFFF;" d="
		M187.63,124.35c17.38-2.04,34.88-2.52,52.37-2.99c-0.4,33.76,26.66,98.69,1,120.68c-21.16,18.72-91.45-2.46-119.64-2.07
		c0.8-21.44,0.77-43.1,5.05-64.21c2.89-14.64,10.47-28.63,22.59-37.62C160.01,129.51,174.01,126.14,187.63,124.35z"/>
	
		<path style="clip-path:url(#SVGID_00000152952859404988021720000006555366006828867731_);fill-rule:evenodd;clip-rule:evenodd;fill:#FFFFFF;" d="
		M0.03,121.33c20.83,0.78,41.83,0.8,62.37,4.67c13.76,2.62,27.27,8.78,36.59,19.5c11.24,12.22,15.28,29.03,17.02,45.1
		c1.76,16.41,2.16,32.92,2.64,49.4c-33.7-0.42-106.12,35.36-128.13,9.78C-28.18,228.55,0.45,149.58,0.03,121.33z"/>
	
		<path style="clip-path:url(#SVGID_00000152952859404988021720000006555366006828867731_);fill-rule:evenodd;clip-rule:evenodd;fill:#FFFFFF;" d="
		M121.36,0.01c34.3,0.35,103.05-30.23,125.06-3.86c17.97,21.04-6.83,94.86-6.44,122.51c-20.2-0.74-40.55-0.82-60.52-4.3
		c-14.16-2.46-28.2-8.38-37.9-19.27c-9.98-10.5-14.58-24.81-16.64-38.86C122.22,37.62,121.98,18.77,121.36,0.01z"/>
	
		<path style="clip-path:url(#SVGID_00000152952859404988021720000006555366006828867731_);fill-rule:evenodd;clip-rule:evenodd;fill:#FFFFFF;" d="
		M-7.81-7.39C11.66-21.22,94.85,0.48,118.66,0c-0.96,22.96-0.54,46.32-6.17,68.76c-3.97,16.21-14.8,30.66-29.67,38.4
		c-14.29,7.19-30.52,8.82-46.25,9.96c-12.18,0.75-24.38,1.34-36.57,1.42C0.43,80.4-39.36,14.13-7.81-7.39z"/>
</g>
</svg>
