<?xml version="1.0" encoding="UTF-8"?>
<svg width="100px" height="100px" viewBox="0 0 100 100" version="1.1" xmlns="http://www.w3.org/2000/svg" xmlns:xlink="http://www.w3.org/1999/xlink">
    <!-- Generator: Sketch 51.1 (57501) - http://www.bohemiancoding.com/sketch -->
    <title>Youtube</title>
    <desc>Created with Sketch.</desc>
    <defs></defs>
    <g id="Youtube-Icon-White" stroke="none" stroke-width="1" fill="none" fill-rule="evenodd">
        <g transform="translate(10.000000, 8.000000)" fill="#FFFFFF" fill-rule="nonzero">
            <path d="M47.7139726,48.7024659 C46.4767124,48.7024659 45.3084933,49.3873973 44.208219,50.7660274 L44.208219,42.4569863 L40.7539726,42.4569863 L40.7539726,67.889315 L44.208219,67.889315 L44.208219,66.031781 C45.3424659,67.4443836 46.510685,68.1468491 47.7139726,68.1468491 C49.1265752,68.1468491 50.0383562,67.4268491 50.449315,65.9802739 C50.689315,65.2569863 50.8087672,64.0021916 50.8087672,62.2136987 L50.8087672,54.6827398 C50.8087672,52.8591779 50.689315,51.5879451 50.449315,50.8690411 C50.0383562,49.4224659 49.1265752,48.7024659 47.7139726,48.7024659 Z M47.4060274,62.4745204 C47.4060274,64.161096 46.909589,64.9994522 45.9123288,64.9994522 C45.3249314,64.9994522 44.7561646,64.7254796 44.208219,64.1775341 L44.208219,52.6202739 C44.7561646,52.0723288 45.3249314,51.7983562 45.9123288,51.7983562 C46.9052053,51.7983562 47.4060274,52.6542465 47.4060274,54.3747947 L47.4060274,62.4745204 Z" id="Fill-1"></path>
            <path d="M58.6520549,48.7024659 C56.8964385,48.7024659 55.5221916,49.3578084 54.5249314,50.6630137 C53.8356164,51.5879451 53.4926027,53.069589 53.4926027,55.0980823 L53.4926027,61.7556164 C53.4926027,63.7797261 53.8531509,65.2569863 54.5764385,66.189589 C55.5736987,67.4958903 56.9643836,68.1501371 58.7539726,68.1501371 C60.5775341,68.1501371 61.951781,67.4619177 62.881096,66.0832876 C63.2964385,65.4663013 63.5528766,64.7769863 63.6558903,64.0197261 C63.7238354,63.5397261 63.758904,62.8 63.758904,61.8027398 L63.758904,61.3402739 L60.2487672,61.3402739 L60.2487672,62.4438354 C60.2487672,62.8076712 60.24,63.090411 60.2268491,63.3008221 C60.2060274,63.5013699 60.2016438,63.6263013 60.2016438,63.6602739 C59.9912328,64.5545204 59.4772602,64.9994522 58.6520549,64.9994522 C57.4827398,64.9994522 56.9008221,64.1227398 56.9008221,62.3671234 L56.9008221,59.0158903 L63.758904,59.0158903 L63.758904,55.0936987 C63.758904,53.1035615 63.3994522,51.6219177 62.6750686,50.6597261 C61.7468491,49.3578084 60.4065752,48.7024659 58.6520549,48.7024659 Z M60.3035615,56.1819177 L56.8964385,56.1819177 L56.8964385,54.4263013 C56.8964385,52.670685 57.4663013,51.7983562 58.6005478,51.7983562 C59.7347947,51.7983562 60.3035615,52.670685 60.3035615,54.4263013 L60.3035615,56.1819177 Z" id="Fill-2"></path>
            <path d="M34.3539726,63.4027398 C33.6,64.4690411 32.8767123,64.9994522 32.1873973,64.9994522 C31.7084931,64.9994522 31.4465754,64.7430137 31.4169863,64.2246575 C31.3786301,64.161096 31.3654795,63.711781 31.3654795,62.8854796 L31.3654795,48.96 L27.9583562,48.96 L27.9583562,63.9167124 C27.9583562,65.2273973 28.060274,66.1512328 28.2706849,66.7035615 C28.5786301,67.6668491 29.3019178,68.1468491 30.4361644,68.1468491 C31.7084931,68.1468491 33.0136986,67.3720549 34.3539726,65.8257535 L34.3539726,67.889315 L37.8126027,67.889315 L37.8126027,48.96 L34.3539726,48.96 L34.3539726,63.4027398 Z" id="Fill-3"></path>
            <path d="M38.8438354,29.5123288 C39.9441097,29.5123288 40.4964385,28.6345205 40.4964385,26.8789041 L40.4964385,18.8317808 C40.4964385,17.0465754 39.9441097,16.1512329 38.8438354,16.1512329 C37.7435616,16.1512329 37.1923288,17.0465754 37.1923288,18.8317808 L37.1923288,26.8789041 C37.1923288,28.6345205 37.7435616,29.5123288 38.8438354,29.5123288 Z" id="Fill-4"></path>
            <polygon id="Fill-5" points="15.4750685 46.0701371 19.4991781 46.0701371 19.4991781 67.889315 23.3172603 67.889315 23.3172603 46.0701371 27.4443835 46.0701371 27.4443835 42.4569863 15.4750685 42.4569863"></polygon>
            <path d="M64.3791779,1.86191781 L14.8591781,1.86191781 C10.7660274,1.86191781 7.26465752,3.31726027 4.35835615,6.22027398 C1.4509589,9.12657535 0,12.6279452 0,16.7210959 L0,66.2367124 C0,70.3298629 1.4509589,73.8312328 4.35835615,76.7342465 C7.26465752,79.6405478 10.7616438,81.0958903 14.8591781,81.0958903 L64.3791779,81.0958903 C68.4679451,81.0958903 71.969315,79.6405478 74.8756164,76.7342465 C77.7786301,73.8312328 79.2339726,70.3298629 79.2339726,66.2367124 L79.2339726,16.7210959 C79.2339726,12.6279452 77.7786301,9.12657535 74.8756164,6.22027398 C71.969315,3.31726027 68.4679451,1.86191781 64.3791779,1.86191781 Z M46.7890411,13.3128767 L50.2443836,13.3128767 L50.2443836,27.3457534 C50.2443836,28.1676712 50.2608221,28.6169863 50.2958903,28.6860274 C50.3298629,29.2383562 50.6038354,29.5123288 51.121096,29.5123288 C51.8060274,29.5123288 52.530411,28.9808219 53.2876712,27.9112329 L53.2876712,13.3128767 L56.7419177,13.3128767 L56.7419177,32.4010959 L53.2876712,32.4010959 L53.2876712,30.3342466 C51.8750686,31.8838356 50.5523288,32.6586301 49.3150686,32.6586301 C48.2147947,32.6586301 47.4739726,32.1917808 47.0980823,31.2668493 C46.8920549,30.6465754 46.7846575,29.7008219 46.7846575,28.4284931 L46.7846575,13.3128767 L46.7890411,13.3128767 Z M33.7369863,19.5035616 C33.7369863,17.5090411 34.0964384,16.0142466 34.819726,15.0169863 C35.7490411,13.7117808 37.0893151,13.0564384 38.8438354,13.0564384 C40.5260274,13.0564384 41.8663013,13.7117808 42.8635615,15.0169863 C43.5868491,16.0142466 43.9473973,17.5090411 43.9473973,19.5035616 L43.9473973,26.2115069 C43.9473973,28.2706849 43.5868491,29.7687671 42.8635615,30.6980822 C41.8663013,32.0032877 40.5260274,32.6586301 38.8438354,32.6586301 C37.0893151,32.6586301 35.7490411,32.0032877 34.819726,30.6980822 C34.0964384,29.7008219 33.7369863,28.2060274 33.7369863,26.2115069 L33.7369863,19.5035616 Z M24.4515069,6.76383562 L27.1879452,16.8241096 L29.8158904,6.76383562 L33.6854795,6.76383562 L29.0410959,22.0328767 L29.0410959,32.4010959 L25.2273973,32.4010959 L25.2273973,22.0328767 C24.8460274,20.1413699 24.0580822,17.4224658 22.8515069,13.8827397 C22.6115069,13.090411 22.2136986,11.9046575 21.6657534,10.3210959 C21.1134246,8.74191779 20.7024658,7.55616438 20.4284931,6.76383562 L24.4515069,6.76383562 Z M66.9567124,69.0235615 C66.6136987,70.5052053 65.8816438,71.758904 64.7649314,72.7912328 C63.6471234,73.8224659 62.350685,74.4263013 60.8690411,74.5972602 C56.16,75.1112328 49.0750686,75.3676712 39.6186301,75.3676712 C30.1589041,75.3676712 23.0783562,75.1112328 18.3649315,74.5972602 C16.8876712,74.4263013 15.5868493,73.8224659 14.4690411,72.7912328 C13.3523288,71.758904 12.6246575,70.5052053 12.2772603,69.0235615 C11.5923288,66.1391779 11.2460274,61.6657535 11.2460274,55.6120549 C11.2460274,49.6657535 11.5923288,45.1923288 12.2772603,42.2005478 C12.6246575,40.689315 13.3567123,39.4268491 14.4690411,38.4120549 C15.5868493,37.3972603 16.9052055,36.8021918 18.4164384,36.6312329 C23.0947945,36.1128767 30.1621918,35.8564384 39.6186301,35.8564384 C49.1090411,35.8564384 56.1939726,36.1128767 60.8690411,36.6312329 C62.350685,36.8021918 63.6558903,37.3928767 64.7901371,38.4120549 C65.9287672,39.4268491 66.6652053,40.689315 67.008219,42.2005478 C67.6624659,45.0553425 67.9879451,49.5243836 67.9879451,55.6120549 C67.9879451,61.6657535 67.6460274,66.1391779 66.9567124,69.0235615 Z" id="Fill-6"></path>
        </g>
    </g>
</svg>